<svg xmlns="http://www.w3.org/2000/svg" xmlns:xlink="http://www.w3.org/1999/xlink" viewBox="0 0 509.16 205.31"><defs><linearGradient id="linear-gradient" x1="1274.83" y1="1846.04" x2="1274.76" y2="1846.04" gradientTransform="matrix(11.48, 61.73, 89.2, -7.71, -187406.5, -109444.49)" gradientUnits="userSpaceOnUse"><stop offset="0" stop-color="#deaa87"/><stop offset="1" stop-color="#c87137"/></linearGradient><linearGradient id="linear-gradient-2" x1="578.24" y1="1082.68" x2="836.76" y2="1082.68" gradientTransform="matrix(0.06, 0.5, 0.48, -0.06, -274.34, -211.5)" gradientUnits="userSpaceOnUse"><stop offset="0" stop-color="#00e964"/><stop offset="1" stop-color="#008cbf"/></linearGradient><linearGradient id="linear-gradient-3" x1="1293.86" y1="1848.45" x2="1293.39" y2="1848.45" gradientTransform="matrix(3.4, 14.68, 26.32, -1.81, -55201.19, -25952.44)" gradientUnits="userSpaceOnUse"><stop offset="0" stop-color="#d89a71"/><stop offset="1" stop-color="#e9c6af"/></linearGradient><linearGradient id="linear-gradient-4" x1="1272.78" y1="1846.4" x2="1272.96" y2="1846.4" gradientTransform="matrix(7.12, 80.17, 56.96, -10.31, -119201.97, -141548.42)" gradientUnits="userSpaceOnUse"><stop offset="0" stop-color="#d38d5f"/><stop offset="0.5" stop-color="#f4e3d7"/><stop offset="1" stop-color="#d38d5f"/></linearGradient></defs><title>logo-full</title><g id="Bat"><path id="path14324" d="M240,106.44s14.51,14.1,16.22,23.45c1.12,6.1-4.48,18.06-4.48,18.06l16.07,7.1s7.2-10.38,12.61-13.12c8.85-4.49,29.5-3.95,29.5-3.95Z" style="fill:url(#linear-gradient)"/><path id="path6604" d="M355.28,57.05c-2.35-22.42-20.29-42-42.34-46.5-17.44-4.53-36.55.59-50.05,12.35-13.17,11-21.68,26.58-27.46,42.5-4.77,13.7-5.52,30.77,4.73,42.23,4.52,5,11.71,6.07,17.44,9.28l48.52,21.69c15-.71,26.37-12.51,34.15-24.3C349.33,100,355,83.2,355.72,66.17A61.8,61.8,0,0,0,355.28,57.05Z" style="fill:url(#linear-gradient-2)"/><path id="path14349" d="M257.16,132.31l8.4,5.73,12.22,4.9s-1.82-4.63-3.59-6.26a21.23,21.23,0,0,0-11.14-5.3C261.09,131.1,257.16,132.31,257.16,132.31Z" style="fill:url(#linear-gradient-3)"/><path id="path14329" d="M257.09,132.3,233,183.71s7.15,5.48,11.16,7.45,12.27,4.12,12.27,4.12l21.51-52.56Z" style="fill:url(#linear-gradient-4)"/></g><g id="Text"><path d="M30.62,81.42a18.55,18.55,0,0,0,6.7,11.73q5.6,4.67,15.05,4.67a32.85,32.85,0,0,0,12.85-2.31,30.58,30.58,0,0,0,9.41-6.12l7.76,10.68a35.57,35.57,0,0,1-14,9,51.56,51.56,0,0,1-16.08,2.4,40.43,40.43,0,0,1-14.72-2.64,35.6,35.6,0,0,1-11.79-7.36,33.77,33.77,0,0,1-7.8-11.24,36.17,36.17,0,0,1-2.82-14.5,38.52,38.52,0,0,1,2.6-14.32A33.67,33.67,0,0,1,25.16,50a33.19,33.19,0,0,1,11.32-7.47A38.45,38.45,0,0,1,51.05,39.9a38.56,38.56,0,0,1,15,2.82,31.79,31.79,0,0,1,11.54,8.17A38.3,38.3,0,0,1,85.11,64a52.62,52.62,0,0,1,2.71,17.47ZM70.68,68.09a16,16,0,0,0-6.81-10.58,21.65,21.65,0,0,0-12.82-4,22,22,0,0,0-12.89,4,15.91,15.91,0,0,0-6.88,10.58Z"/><path d="M156,109.77H110.16V96.15H125.1V27.81H110.16V14.19h30.1v82H156Z"/><path d="M184.06,41.51h15.16v6.15A33.09,33.09,0,0,1,208,41.84a25.08,25.08,0,0,1,10.14-1.94,28.2,28.2,0,0,1,12.23,2.67A28.76,28.76,0,0,1,240,50a35.6,35.6,0,0,1,6.37,11.35,42.9,42.9,0,0,1,2.34,14.39,42.8,42.8,0,0,1-2.34,14.43A35.68,35.68,0,0,1,240,101.46a28.36,28.36,0,0,1-21.9,10,24,24,0,0,1-10.14-2,35.51,35.51,0,0,1-8.75-5.9v33.58H184.06Zm15.16,50a17.94,17.94,0,0,0,6.92,4.66,22.13,22.13,0,0,0,8.09,1.65,17.75,17.75,0,0,0,14-6.09q5.38-6.09,5.38-16t-5.38-16.07a17.66,17.66,0,0,0-14-6.16,23,23,0,0,0-8.09,1.58,17.28,17.28,0,0,0-6.92,4.58Z"/><path d="M332.38,75.71a39.8,39.8,0,0,1-2.53,14.5,32.09,32.09,0,0,1-7.25,11.24,33.28,33.28,0,0,1-11.32,7.36,39.33,39.33,0,0,1-14.72,2.64A38.91,38.91,0,0,1,282,108.82a33.27,33.27,0,0,1-11.32-7.36,32.09,32.09,0,0,1-7.25-11.24,39.82,39.82,0,0,1-2.53-14.5,40.08,40.08,0,0,1,2.53-14.39,32.64,32.64,0,0,1,7.25-11.43A32.31,32.31,0,0,1,282,42.5a39.42,39.42,0,0,1,14.58-2.6,39.84,39.84,0,0,1,14.72,2.6,32,32,0,0,1,18.57,18.82A40.06,40.06,0,0,1,332.38,75.71Zm-15.16,0A26.8,26.8,0,0,0,315.79,67a19.27,19.27,0,0,0-10.66-11.74,22.27,22.27,0,0,0-17.19,0,19.1,19.1,0,0,0-6.42,4.66A20.4,20.4,0,0,0,277.48,67a26.82,26.82,0,0,0-1.42,8.77,25.89,25.89,0,0,0,1.42,8.8,21.54,21.54,0,0,0,4.05,7A17.86,17.86,0,0,0,288,96.18a23.2,23.2,0,0,0,17.19,0,18.5,18.5,0,0,0,6.53-4.66,20.87,20.87,0,0,0,4.12-7A25.88,25.88,0,0,0,317.22,75.75Z"/><path d="M408.92,109.77H393.76V67.65q0-8-3-11.06T382,53.52a16.63,16.63,0,0,0-13.73,6.81Q363,67.14,363,79.15v30.62H347.83V41.51H363V58.65a25.05,25.05,0,0,1,8.42-13.81,23.43,23.43,0,0,1,15.16-4.94q10.47,0,16.41,6.81t5.93,20.95Z"/><path d="M490.8,109a30.81,30.81,0,0,1-2.42,12.52,26.18,26.18,0,0,1-6.78,9.3,30.26,30.26,0,0,1-10.25,5.82,40.49,40.49,0,0,1-13.15,2q-17.8,0-30.4-10.77L435,116.21q10.47,9,23.22,9,7.84,0,12.63-3.84t4.8-12V102a38,38,0,0,1-9,6,24.27,24.27,0,0,1-10,1.94,27.25,27.25,0,0,1-12.23-2.78,30,30,0,0,1-9.7-7.58,36.1,36.1,0,0,1-6.37-11.17,41.06,41.06,0,0,1,0-27.14,35.11,35.11,0,0,1,6.37-11.13,30,30,0,0,1,9.7-7.47A27.56,27.56,0,0,1,456.6,39.9a25.34,25.34,0,0,1,10.18,1.94,34,34,0,0,1,8.86,5.82V41.51H490.8ZM475.64,59.67a17.24,17.24,0,0,0-7-4.58,24.06,24.06,0,0,0-8.31-1.57,17.65,17.65,0,0,0-13.88,6q-5.31,6-5.31,15.31a24.71,24.71,0,0,0,1.43,8.53,20.87,20.87,0,0,0,4,6.77,18.22,18.22,0,0,0,13.81,6.15,23.1,23.1,0,0,0,8.31-1.65,17.86,17.86,0,0,0,7-4.65Z"/></g></svg>