<svg id="Bat" xmlns="http://www.w3.org/2000/svg" xmlns:xlink="http://www.w3.org/1999/xlink" viewBox="0 0 123.69 186.37"><defs><linearGradient id="linear-gradient" x1="1278.24" y1="1600.22" x2="1278.17" y2="1600.22" gradientTransform="matrix(11.48, 61.73, 89.2, -7.71, -165752.24, -111558.86)" gradientUnits="userSpaceOnUse"><stop offset="0" stop-color="#deaa87"/><stop offset="1" stop-color="#c87137"/></linearGradient><linearGradient id="linear-gradient-2" x1="981.5" y1="307.1" x2="1240.02" y2="307.1" gradientTransform="matrix(0.06, 0.5, 0.48, -0.06, -156.96, -469.2)" gradientUnits="userSpaceOnUse"><stop offset="0" stop-color="#00e964"/><stop offset="1" stop-color="#008cbf"/></linearGradient><linearGradient id="linear-gradient-3" x1="1308.47" y1="1594.97" x2="1308" y2="1594.97" gradientTransform="matrix(3.4, 14.68, 26.32, -1.81, -48812.57, -26634.01)" gradientUnits="userSpaceOnUse"><stop offset="0" stop-color="#d89a71"/><stop offset="1" stop-color="#e9c6af"/></linearGradient><linearGradient id="linear-gradient-4" x1="1275.13" y1="1599.26" x2="1275.32" y2="1599.26" gradientTransform="matrix(7.12, 80.17, 56.96, -10.31, -105373.47, -144294.46)" gradientUnits="userSpaceOnUse"><stop offset="0" stop-color="#d38d5f"/><stop offset="0.5" stop-color="#f4e3d7"/><stop offset="1" stop-color="#d38d5f"/></linearGradient></defs><title>logo-bat</title><path id="path14324" d="M7.93,97.51S22.44,111.62,24.15,121c1.12,6.1-4.48,18.06-4.48,18.06l16.07,7.1s7.2-10.38,12.61-13.12c8.85-4.49,29.5-3.95,29.5-3.95Z" style="fill:url(#linear-gradient)"/><path id="path6604" d="M123.23,48.13c-2.35-22.42-20.29-42-42.34-46.5C63.45-2.89,44.33,2.23,30.83,14,17.66,25,9.16,40.57,3.37,56.49-1.4,70.18-2.15,87.25,8.1,98.72c4.52,5,11.71,6.07,17.44,9.28l48.52,21.69c15-.71,26.37-12.51,34.15-24.3C117.29,91,123,74.27,123.67,57.25A61.8,61.8,0,0,0,123.23,48.13Z" style="fill:url(#linear-gradient-2)"/><path id="path14349" d="M25.11,123.38l8.4,5.73L45.74,134s-1.82-4.63-3.59-6.26A21.23,21.23,0,0,0,31,122.46C29,122.17,25.11,123.38,25.11,123.38Z" style="fill:url(#linear-gradient-3)"/><path id="path14329" d="M25,123.37.92,174.79s7.15,5.48,11.16,7.45,12.27,4.12,12.27,4.12L45.86,133.8Z" style="fill:url(#linear-gradient-4)"/></svg>